<svg width="38" height="54" viewBox="0 0 38 54" fill="none" xmlns="http://www.w3.org/2000/svg">
<path d="M19 0C29.4892 0 38 7.77576 38 17.3571C38 32.7857 19 54 19 54C19 54 0 32.7857 0 17.3571C0 7.77576 8.51081 0 19 0ZM19 27C20.5031 27 21.9725 26.5476 23.2223 25.6999C24.4721 24.8523 25.4463 23.6474 26.0215 22.2378C26.5967 20.8282 26.7472 19.2772 26.454 17.7807C26.1607 16.2843 25.4369 14.9098 24.374 13.8309C23.3111 12.752 21.9569 12.0173 20.4827 11.7197C19.0084 11.422 17.4803 11.5748 16.0916 12.1586C14.7029 12.7425 13.5159 13.7313 12.6808 14.9999C11.8457 16.2685 11.4 17.76 11.4 19.2857C11.4022 21.331 12.2036 23.2918 13.6284 24.7381C15.0532 26.1843 16.985 26.9978 19 27Z" fill="#CDA274"/>
</svg>
